<svg xmlns="http://www.w3.org/2000/svg" viewBox="0 0 588.82 55.51"><defs><style>.cls-1{font-size:9px;fill:#212121;font-family:Verdana;}.cls-2{letter-spacing:-0.14em;}.cls-3{letter-spacing:-0.06em;}.cls-4{letter-spacing:-0.02em;}.cls-5{letter-spacing:-0.01em;}.cls-6{letter-spacing:-0.15em;}.cls-7{letter-spacing:0.14em;}.cls-8{letter-spacing:0.14em;}.cls-9{letter-spacing:0.14em;}.cls-10{letter-spacing:-0.02em;}.cls-11{letter-spacing:-0.01em;}</style></defs><title>Asset 9</title><g id="Layer_2" data-name="Layer 2"><g id="Capa_6" data-name="Capa 6"><text class="cls-1" transform="translate(42.94 28.75)">10. Alexande<tspan class="cls-2" x="59.26" y="0">r</tspan><tspan x="61.83" y="0">, E. K</tspan><tspan class="cls-3" x="86.63" y="0">.</tspan><tspan x="89.33" y="0">, </tspan><tspan class="cls-4" x="95.77" y="0">P</tspan><tspan x="100.98" y="0">earce, E. N</tspan><tspan class="cls-3" x="150.93" y="0">.</tspan><tspan x="153.64" y="0">, Brent, G. A</tspan><tspan class="cls-3" x="210.7" y="0">.</tspan><tspan x="213.4" y="0">, Brown, R. </tspan><tspan class="cls-5" x="267.5" y="0">S</tspan><tspan class="cls-3" x="273.57" y="0">.</tspan><tspan x="276.27" y="0">, Chen, H</tspan><tspan class="cls-3" x="318.95" y="0">.</tspan><tspan x="321.65" y="0">, Dosiou, C</tspan><tspan class="cls-3" x="371.52" y="0">.</tspan><tspan x="374.22" y="0">, ... &amp; </tspan><tspan class="cls-4" x="403.35" y="0">P</tspan><tspan x="408.56" y="0">eeters, R. </tspan><tspan class="cls-6" x="455.85" y="0">P</tspan><tspan x="459.96" y="0">.</tspan><tspan x="0" y="10.8">(2017).</tspan><tspan class="cls-7" x="34.33" y="10.8"> </tspan><tspan x="38.73" y="10.8">2017</tspan><tspan class="cls-8" x="61.62" y="10.8"> </tspan><tspan x="66.01" y="10.8">Guidelines</tspan><tspan class="cls-7" x="112.81" y="10.8"> </tspan><tspan x="117.2" y="10.8">of</tspan><tspan class="cls-7" x="125.83" y="10.8"> </tspan><tspan x="130.22" y="10.8">the</tspan><tspan class="cls-8" x="144.82" y="10.8"> </tspan><tspan x="149.22" y="10.8">American</tspan><tspan class="cls-7" x="191.58" y="10.8"> </tspan><tspan x="195.98" y="10.8">T</tspan><tspan class="cls-5" x="201.52" y="10.8">h</tspan><tspan x="207.13" y="10.8">yroid</tspan><tspan class="cls-8" x="229.84" y="10.8"> </tspan><tspan x="234.23" y="10.8">Association</tspan><tspan class="cls-9" x="284.96" y="10.8"> </tspan><tspan x="289.36" y="10.8">for</tspan><tspan class="cls-8" x="301.83" y="10.8"> </tspan><tspan x="306.22" y="10.8">the</tspan><tspan class="cls-8" x="320.82" y="10.8"> </tspan><tspan x="325.22" y="10.8">diagnosis</tspan><tspan class="cls-9" x="367.31" y="10.8"> </tspan><tspan x="371.71" y="10.8">and</tspan><tspan class="cls-8" x="388.42" y="10.8"> </tspan><tspan x="392.81" y="10.8">management</tspan><tspan class="cls-8" x="452.39" y="10.8"> </tspan><tspan x="456.79" y="10.8">of </tspan><tspan x="0" y="21.6">t</tspan><tspan class="cls-5" x="3.55" y="21.6">h</tspan><tspan x="9.15" y="21.6">yroid disease during pregnancy and the postpartum. T</tspan><tspan class="cls-5" x="256.02" y="21.6">h</tspan><tspan x="261.63" y="21.6">yroid, 27(3), 315-389.</tspan></text><text class="cls-1" transform="translate(0 7.77)">Pruebas de disfunción tiroidea en el emba<tspan class="cls-10" x="189.8" y="0">r</tspan><tspan x="193.48" y="0">a</tspan><tspan class="cls-11" x="198.88" y="0">z</tspan><tspan class="cls-5" x="203.56" y="0">o</tspan><tspan x="208.93" y="0">. ULRR, Límite superior del </tspan><tspan class="cls-10" x="333.43" y="0">r</tspan><tspan x="337.12" y="0">ango de referencia. En el embar</tspan><tspan class="cls-11" x="482.72" y="0">z</tspan><tspan x="487.4" y="0">o el ULRR es 4 mUI/L.</tspan></text></g></g></svg>