<svg xmlns="http://www.w3.org/2000/svg" xmlns:xlink="http://www.w3.org/1999/xlink" viewBox="0 0 63.51 63.51"><defs><style>.cls-1{isolation:isolate;}.Graphic-Style-4,.cls-2{mix-blend-mode:multiply;}.cls-3,.cls-43{fill:#fff;}.cls-3{opacity:0;}.cls-4{fill:#f9f9f9;opacity:0.05;}.cls-5{fill:#f3f3f3;opacity:0.1;}.cls-6{fill:#ededee;opacity:0.14;}.cls-7{fill:#e7e7e8;opacity:0.19;}.cls-8{fill:#e1e1e2;opacity:0.24;}.cls-9{fill:#dbdbdc;opacity:0.29;}.cls-10{fill:#d5d5d6;opacity:0.33;}.cls-11{fill:#cfcfd1;opacity:0.38;}.cls-12{fill:#c9c9cb;opacity:0.43;}.cls-13{fill:#c3c3c5;opacity:0.48;}.cls-14{fill:#bcbebf;opacity:0.52;}.cls-15{fill:#b6b8b9;opacity:0.57;}.cls-16{fill:#b0b2b3;opacity:0.62;}.cls-17{fill:#aaacae;opacity:0.67;}.cls-18{fill:#a4a6a8;opacity:0.71;}.cls-19{fill:#9ea0a2;opacity:0.76;}.cls-20{fill:#989a9c;opacity:0.81;}.cls-21{fill:#929496;opacity:0.86;}.cls-22{fill:#8c8e91;opacity:0.9;}.cls-23{fill:#86888b;opacity:0.95;}.Graphic-Style{fill:#808285;}.cls-24{fill:url(#linear-gradient);}.cls-25{fill:url(#linear-gradient-2);}.cls-26{fill:#f7f7f7;opacity:0.06;}.cls-27{fill:#efeff0;opacity:0.13;}.cls-28{fill:#e7e8e8;opacity:0.19;}.cls-29{fill:#dfe0e1;opacity:0.25;}.cls-30{fill:#d7d8d9;opacity:0.31;}.cls-31{fill:#cfd0d1;opacity:0.38;}.cls-32{fill:#c7c8ca;opacity:0.44;}.cls-33{fill:#c0c1c2;opacity:0.5;}.cls-34{fill:#b8b9ba;opacity:0.56;}.cls-35{fill:#b0b1b3;opacity:0.63;}.cls-36{fill:#a8a9ab;opacity:0.69;}.cls-37{fill:#a0a1a4;opacity:0.75;}.cls-38{fill:#98999c;opacity:0.81;}.cls-39{fill:#909294;opacity:0.88;}.cls-40{fill:#888a8d;opacity:0.94;}.cls-41{fill:url(#Degradado_sin_nombre_3);}.cls-42{fill:url(#Degradado_sin_nombre_3-2);}.Graphic-Style-4{fill:#a7a9ac;opacity:0.8;}</style><linearGradient id="linear-gradient" y1="27.61" x2="55.23" y2="27.61" gradientUnits="userSpaceOnUse"><stop offset="0" stop-color="#fff"/><stop offset="1" stop-color="#d1d3d4"/></linearGradient><linearGradient id="linear-gradient-2" x1="1.38" y1="27.61" x2="53.85" y2="27.61" gradientUnits="userSpaceOnUse"><stop offset="0" stop-color="#d1d3d4"/><stop offset="1" stop-color="#fff"/></linearGradient><radialGradient id="Degradado_sin_nombre_3" cx="27.61" cy="27.61" r="20.71" gradientUnits="userSpaceOnUse"><stop offset="0" stop-color="#871ed8"/><stop offset="0.38" stop-color="#6f21b2"/><stop offset="0.78" stop-color="#5a2490"/><stop offset="1" stop-color="#522583"/></radialGradient><radialGradient id="Degradado_sin_nombre_3-2" cx="27.61" cy="27.61" r="17.26" xlink:href="#Degradado_sin_nombre_3"/></defs><title>Asset 10</title><g class="cls-1"><g id="Layer_2" data-name="Layer 2"><g id="Capa_6" data-name="Capa 6"><g class="cls-2"><circle class="cls-3" cx="35.9" cy="35.9" r="27.61"/><circle class="cls-4" cx="35.5" cy="35.5" r="27.6"/><circle class="cls-5" cx="35.11" cy="35.11" r="27.58"/><circle class="cls-6" cx="34.71" cy="34.71" r="27.57"/><circle class="cls-7" cx="34.32" cy="34.32" r="27.55"/><circle class="cls-8" cx="33.92" cy="33.92" r="27.53"/><circle class="cls-9" cx="33.53" cy="33.53" r="27.52"/><circle class="cls-10" cx="33.14" cy="33.14" r="27.5"/><circle class="cls-11" cx="32.74" cy="32.74" r="27.48"/><circle class="cls-12" cx="32.35" cy="32.35" r="27.47"/><circle class="cls-13" cx="31.95" cy="31.95" r="27.45"/><circle class="cls-14" cx="31.56" cy="31.56" r="27.43"/><circle class="cls-15" cx="31.16" cy="31.16" r="27.42"/><circle class="cls-16" cx="30.77" cy="30.77" r="27.4"/><circle class="cls-17" cx="30.38" cy="30.38" r="27.38"/><circle class="cls-18" cx="29.98" cy="29.98" r="27.37"/><circle class="cls-19" cx="29.59" cy="29.59" r="27.35"/><circle class="cls-20" cx="29.19" cy="29.19" r="27.34"/><circle class="cls-21" cx="28.8" cy="28.8" r="27.32"/><circle class="cls-22" cx="28.4" cy="28.4" r="27.3"/><circle class="cls-23" cx="28.01" cy="28.01" r="27.29"/><circle class="Graphic-Style" cx="27.61" cy="27.61" r="27.27"/></g><circle class="cls-24" cx="27.61" cy="27.61" r="27.61"/><circle class="cls-25" cx="27.61" cy="27.61" r="26.23"/><g class="cls-2"><circle class="cls-3" cx="33.28" cy="33.28" r="20.71"/><circle class="cls-26" cx="32.93" cy="32.93" r="20.69"/><circle class="cls-27" cx="32.57" cy="32.57" r="20.67"/><circle class="cls-28" cx="32.22" cy="32.22" r="20.65"/><circle class="cls-29" cx="31.86" cy="31.86" r="20.62"/><circle class="cls-30" cx="31.51" cy="31.51" r="20.6"/><circle class="cls-31" cx="31.16" cy="31.16" r="20.58"/><circle class="cls-32" cx="30.8" cy="30.8" r="20.56"/><circle class="cls-33" cx="30.45" cy="30.45" r="20.54"/><circle class="cls-34" cx="30.09" cy="30.09" r="20.52"/><circle class="cls-35" cx="29.74" cy="29.74" r="20.5"/><circle class="cls-36" cx="29.39" cy="29.39" r="20.47"/><circle class="cls-37" cx="29.03" cy="29.03" r="20.45"/><circle class="cls-38" cx="28.68" cy="28.68" r="20.43"/><circle class="cls-39" cx="28.32" cy="28.32" r="20.41"/><circle class="cls-40" cx="27.97" cy="27.97" r="20.39"/><circle class="Graphic-Style" cx="27.61" cy="27.61" r="20.37"/></g><circle class="cls-41" cx="27.61" cy="27.61" r="20.71"/><circle class="cls-42" cx="27.61" cy="27.61" r="17.26"/><path class="Graphic-Style-4" d="M21.51,36.72a1,1,0,0,1-1-1V21.59a1,1,0,0,1,1-1,1.06,1.06,0,0,1,.51.14L32.7,27.81a1,1,0,0,1,0,1.7L22,36.58a1,1,0,0,1-.51.14Z"/><path class="Graphic-Style-4" d="M34.81,36.38a2,2,0,0,1-2-2V22.91a2,2,0,0,1,3.92,0v11.5A2,2,0,0,1,34.81,36.38Z"/><path class="cls-43" d="M20.46,35.68a1,1,0,0,1-1-1V20.55a1,1,0,0,1,1-1,1,1,0,0,1,.52.15l10.67,7.06a1,1,0,0,1,0,1.71L21,35.53a1,1,0,0,1-.52.15Z"/><path class="cls-43" d="M33.76,35.33a2,2,0,0,1-2-2V21.86a2,2,0,0,1,3.93,0V33.37A2,2,0,0,1,33.76,35.33Z"/></g></g></g></svg>