<svg xmlns="http://www.w3.org/2000/svg" viewBox="0 0 808 479.32"><defs><style>.cls-1{fill:#ee3d96;}.cls-11,.cls-18,.cls-2{fill:#522e91;}.cls-3,.cls-4,.cls-5,.cls-6,.cls-7,.cls-8{fill:none;stroke:#522e91;stroke-linecap:round;stroke-linejoin:round;stroke-width:3px;}.cls-4{stroke-dasharray:1.98 4.95;}.cls-5{stroke-dasharray:2.01 5.02;}.cls-6{stroke-dasharray:1.99 4.97;}.cls-7{stroke-dasharray:2.02 5.05;}.cls-8{stroke-dasharray:2 5;}.cls-9{font-size:11.79px;}.cls-20,.cls-9{fill:#fff;}.cls-11,.cls-19,.cls-9{font-family:Verdana;}.cls-10{fill:#bae8e4;}.cls-11,.cls-18{font-size:12.77px;}.cls-12{letter-spacing:0em;}.cls-13{letter-spacing:0em;}.cls-14{letter-spacing:0em;}.cls-15{letter-spacing:0em;}.cls-16{letter-spacing:-0.02em;}.cls-17{letter-spacing:-0.01em;}.cls-18{font-family:Verdana-Bold, Verdana;font-weight:700;}.cls-19{font-weight:400;}.cls-20{font-size:18.67px;font-family:Merck-Regular, Merck Regular;}.cls-21{letter-spacing:-0.01em;}</style></defs><title>Asset 8</title><g id="Layer_2" data-name="Layer 2"><g id="Capa_6" data-name="Capa 6"><path class="cls-1" d="M147.61,14.39c0-6,9.08-10.86,20.27-10.86L662.47,0c11.19,0,18.17,4.15,20.26,15.51l7,46.54c0,6-9.07,10.86-20.26,10.86l-492.18-.13c-11.19,0-20.26-4.87-20.26-10.87Z"/><path class="cls-2" d="M689.78,14.39c0-6-9.07-10.86-20.26-10.86L174.93,0c-11.2,0-18.18,4.15-20.27,15.51l-7,46.54c0,6,9.08,10.86,20.27,10.86l492.17-.13c11.19,0,20.26-4.87,20.26-10.87Z"/><polygon class="cls-2" points="90.06 177.93 90.06 171.73 79.71 180.16 69.35 171.73 69.35 177.93 79.71 186.36 90.06 177.93"/><polygon class="cls-2" points="298.05 177.93 298.05 171.73 287.7 180.16 277.34 171.73 277.34 177.93 287.7 186.36 298.05 177.93"/><polygon class="cls-2" points="736.41 177.93 736.41 171.73 726.05 180.16 715.7 171.73 715.7 177.93 726.05 186.36 736.41 177.93"/><polygon class="cls-2" points="90.06 105.3 90.06 99.09 79.71 107.52 69.35 99.09 69.35 105.3 79.71 113.73 90.06 105.3"/><polygon class="cls-2" points="298.05 105.3 298.05 99.09 287.7 107.52 277.34 99.09 277.34 105.3 287.7 113.73 298.05 105.3"/><polygon class="cls-2" points="736.41 105.3 736.41 99.09 726.05 107.52 715.7 99.09 715.7 105.3 726.05 113.73 736.41 105.3"/><polygon class="cls-2" points="517.23 105.3 517.23 99.09 506.87 107.52 496.52 99.09 496.52 105.3 506.87 113.73 517.23 105.3"/><polygon class="cls-2" points="90.06 313.86 90.06 307.65 79.71 316.08 69.35 307.65 69.35 313.86 79.71 322.29 90.06 313.86"/><polygon class="cls-2" points="298.05 313.86 298.05 307.65 287.7 316.08 277.34 307.65 277.34 313.86 287.7 322.29 298.05 313.86"/><polygon class="cls-2" points="736.41 313.86 736.41 307.65 726.05 316.08 715.7 307.65 715.7 313.86 726.05 322.29 736.41 313.86"/><polygon class="cls-2" points="517.23 313.86 517.23 307.65 506.87 316.08 496.52 307.65 496.52 313.86 506.87 322.29 517.23 313.86"/><polygon class="cls-2" points="545.12 244.26 545.12 238.06 534.77 246.49 524.41 238.06 524.41 244.26 534.77 252.69 545.12 244.26"/><polygon class="cls-2" points="423.59 244.26 423.59 238.06 413.23 246.49 402.88 238.06 402.88 244.26 413.23 252.69 423.59 244.26"/><polygon class="cls-2" points="90.06 360.66 90.06 354.46 79.71 362.89 69.35 354.46 69.35 360.66 79.71 369.09 90.06 360.66"/><polygon class="cls-2" points="298.05 360.66 298.05 354.46 287.7 362.89 277.34 354.46 277.34 360.66 287.7 369.09 298.05 360.66"/><polygon class="cls-2" points="736.41 360.66 736.41 354.46 726.05 362.89 715.7 354.46 715.7 360.66 726.05 369.09 736.41 360.66"/><polygon class="cls-2" points="511.6 360.66 511.6 354.46 501.25 362.89 490.89 354.46 490.89 360.66 501.25 369.09 511.6 360.66"/><line class="cls-3" x1="79.71" y1="107.52" x2="79.71" y2="106.52"/><line class="cls-4" x1="79.71" y1="101.57" x2="79.71" y2="97.11"/><polyline class="cls-3" points="79.71 94.63 79.71 93.63 80.71 93.63"/><line class="cls-5" x1="85.72" y1="93.63" x2="722.54" y2="93.63"/><polyline class="cls-3" points="725.05 93.63 726.05 93.63 726.05 94.63"/><line class="cls-4" x1="726.05" y1="99.59" x2="726.05" y2="104.05"/><line class="cls-3" x1="726.05" y1="106.52" x2="726.05" y2="107.52"/><line class="cls-3" x1="78.9" y1="314.6" x2="78.9" y2="313.6"/><line class="cls-4" x1="78.9" y1="308.64" x2="78.9" y2="304.18"/><polyline class="cls-3" points="78.9 301.71 78.9 300.71 79.9 300.71"/><line class="cls-6" x1="84.87" y1="300.71" x2="284.21" y2="300.71"/><polyline class="cls-3" points="286.7 300.71 287.7 300.71 287.7 301.71"/><line class="cls-4" x1="287.7" y1="306.66" x2="287.7" y2="311.12"/><line class="cls-3" x1="287.7" y1="313.6" x2="287.7" y2="314.6"/><line class="cls-3" x1="506.87" y1="314.6" x2="506.87" y2="313.6"/><line class="cls-4" x1="506.87" y1="308.64" x2="506.87" y2="304.18"/><polyline class="cls-3" points="506.87 301.71 506.87 300.71 507.87 300.71"/><line class="cls-7" x1="512.92" y1="300.71" x2="722.53" y2="300.71"/><polyline class="cls-3" points="725.05 300.71 726.05 300.71 726.05 301.71"/><line class="cls-4" x1="726.05" y1="306.66" x2="726.05" y2="311.12"/><line class="cls-3" x1="726.05" y1="313.6" x2="726.05" y2="314.6"/><line class="cls-8" x1="287.7" y1="107.52" x2="287.7" y2="93.63"/><line class="cls-8" x1="506.87" y1="107.52" x2="506.87" y2="93.63"/><line class="cls-8" x1="399" y1="93.86" x2="399" y2="68.75"/><polyline class="cls-8" points="183.3 300.71 183.3 268.14 318.76 268.14"/><polyline class="cls-8" points="413.23 246.49 413.23 219.22 534.77 219.22 534.77 246.49"/><line class="cls-8" x1="453.35" y1="167.08" x2="453.35" y2="219.22"/><polyline class="cls-8" points="635.34 266.22 690.53 266.22 690.53 300.71"/><path class="cls-1" d="M255.58,444.92c0-3.53,5.33-6.39,11.91-6.39l290.72-2.07c6.57,0,10.68,2.44,11.91,9.11l4.14,27.36c0,3.53-5.33,6.39-11.91,6.39l-289.29-.08c-6.58,0-11.91-2.86-11.91-6.39Z"/><path class="cls-2" d="M574.26,444.92c0-3.53-5.33-6.39-11.91-6.39l-290.72-2.07c-6.57,0-10.68,2.44-11.91,9.11l-4.14,27.36c0,3.53,5.33,6.39,11.91,6.39l289.29-.08c6.58,0,11.92-2.86,11.92-6.39Z"/><text class="cls-9" transform="translate(273.01 454.31)">Si abortos recurrentes y Anti TPO + TSH 2,5 – 4 <tspan x="63.82" y="14.15">Se beneficia de ser tratada</tspan></text><rect class="cls-10" y="116.1" width="172.66" height="50.98" rx="11.04"/><rect class="cls-10" x="201.37" y="116.1" width="172.66" height="50.98" rx="11.04"/><rect class="cls-10" x="414.92" y="116.1" width="172.66" height="50.98" rx="11.04"/><rect class="cls-10" x="635.34" y="116.1" width="172.66" height="50.98" rx="11.04"/><rect class="cls-10" y="189.97" width="172.66" height="50.98" rx="11.04"/><rect class="cls-1" x="201.37" y="189.97" width="172.66" height="50.98" rx="11.04"/><rect class="cls-10" x="635.34" y="189.97" width="172.66" height="50.98" rx="11.04"/><text class="cls-11" transform="translate(38.02 144.89)"><tspan class="cls-12">T</tspan><tspan x="7.81" y="0">SH &lt;0,1 </tspan><tspan class="cls-13" x="66.47" y="0">m</tspan><tspan x="78.88" y="0">Ul/L</tspan></text><text class="cls-11" transform="translate(231.9 144.89)"><tspan class="cls-12">T</tspan><tspan x="7.81" y="0">SH 0,1-2,5 </tspan><tspan class="cls-14" x="82.7" y="0">m</tspan><tspan x="95.1" y="0">Ul/L</tspan></text><text class="cls-11" transform="translate(447.59 144.89)"><tspan class="cls-12">T</tspan><tspan x="7.81" y="0">SH 2,5-10 </tspan><tspan class="cls-13" x="78.06" y="0">m</tspan><tspan x="90.47" y="0">Ul/L</tspan></text><text class="cls-11" transform="translate(673.44 144.89)"><tspan class="cls-12">T</tspan><tspan x="7.81" y="0">SH ≥ 10 </tspan><tspan class="cls-15" x="66.31" y="0">m</tspan><tspan x="78.72" y="0">Ul/L</tspan></text><rect class="cls-10" y="324.99" width="172.66" height="25.49" rx="6.93"/><rect class="cls-10" x="201.37" y="324.99" width="172.66" height="25.49" rx="6.93"/><rect class="cls-10" x="414.92" y="324.99" width="172.66" height="25.49" rx="6.93"/><rect class="cls-10" x="284.33" y="255.4" width="172.66" height="25.49" rx="6.93"/><rect class="cls-10" x="482.9" y="255.4" width="172.66" height="25.49" rx="6.93"/><rect class="cls-10" x="635.34" y="324.99" width="172.66" height="25.49" rx="6.93"/><rect class="cls-10" y="373.89" width="172.66" height="50.98" rx="11.04"/><rect class="cls-10" x="201.37" y="373.89" width="172.66" height="50.98" rx="11.04"/><rect class="cls-10" x="414.92" y="373.89" width="172.66" height="50.98" rx="11.04"/><rect class="cls-10" x="635.34" y="373.89" width="172.66" height="50.98" rx="11.04"/><text class="cls-11" transform="translate(13.4 211.47)">Conside<tspan class="cls-16" x="50.49" y="0">r</tspan><tspan x="55.72" y="0">ar dia</tspan><tspan class="cls-13" x="92.47" y="0">g</tspan><tspan x="100.42" y="0">nóstico</tspan><tspan x="34.58" y="15.33">tirot</tspan><tspan class="cls-17" x="61.35" y="15.33">o</tspan><tspan x="68.99" y="15.33">xicosis</tspan></text><text class="cls-18" transform="translate(6.73 395.39)">Conside<tspan class="cls-16" x="56.47" y="0">r</tspan><tspan x="62.61" y="0">ar</tspan><tspan class="cls-19" x="77.49" y="0" xml:space="preserve"> tratamiento</tspan><tspan class="cls-19"><tspan x="25.84" y="15.33">con Levotiroxina</tspan></tspan></text><text class="cls-18" transform="translate(642.99 395.39)">Conside<tspan class="cls-16" x="56.47" y="0">r</tspan><tspan x="62.61" y="0">ar</tspan><tspan class="cls-19" x="77.49" y="0" xml:space="preserve"> tratamiento</tspan><tspan class="cls-19"><tspan x="25.84" y="15.33">con Levotiroxina</tspan></tspan></text><text class="cls-11" transform="translate(265.88 395.39)"><tspan xml:space="preserve"> Tratar</tspan><tspan x="-30.97" y="15.33">con Levotiroxina</tspan></text><text class="cls-11" transform="translate(452.71 403.25)">No tratamiento</text><text class="cls-20" transform="translate(261.01 208.8) scale(0.58)">No <tspan class="cls-21" x="26.49" y="0">r</tspan><tspan x="32.41" y="0">equie</tspan><tspan class="cls-21" x="76.28" y="0">r</tspan><tspan x="82.2" y="0">e </tspan><tspan x="-25.77" y="25.28">chequeo adicional</tspan></text><text class="cls-11" transform="translate(652.8 218.77)">Tratar con Levotiroxina</text><text class="cls-11" transform="translate(20.17 342.02)">TSH 2,5 mUl/L - ULRR</text><text class="cls-11" transform="translate(435.09 342.02)">TSH 2,5 mUl/L - ULRR</text><text class="cls-11" transform="translate(220.78 342.02)">TSH 10 mUI/L - ULRR </text><text class="cls-11" transform="translate(325.73 271.44)">TPOAb positivo</text><text class="cls-11" transform="translate(522.16 271.44)">TPOAb negativo</text><text class="cls-11" transform="translate(657.68 342.02)">TSH ULRR - 10 mUl/L</text></g></g></svg>