<svg xmlns="http://www.w3.org/2000/svg" viewBox="0 0 497.68 199.87"><defs><style>.cls-1{fill:#522e91;}.cls-2{fill:#bae8e4;}.cls-3{fill:#a5d7d5;opacity:0.4;}.cls-4{font-size:18.51px;fill:#232323;font-family:Verdana;}.cls-5{letter-spacing:0.05em;}.cls-6{letter-spacing:0.05em;}.cls-7{letter-spacing:-0.01em;}.cls-8{letter-spacing:-0.02em;}.cls-9{letter-spacing:-0.02em;}.cls-10{letter-spacing:-0.01em;}.cls-11{letter-spacing:-0.02em;}.cls-12{letter-spacing:0.26em;}.cls-13{letter-spacing:0.26em;}.cls-14{letter-spacing:-0.01em;}.cls-15{letter-spacing:-0.01em;}.cls-16{letter-spacing:-0.01em;}.cls-17{fill:#ee3d96;}</style></defs><title>Asset 3</title><g id="Layer_2" data-name="Layer 2"><g id="Capa_6" data-name="Capa 6"><path class="cls-1" d="M0,17.13C0,7.67,8.22,0,18.36,0h461c10.14,0,18.36,7.67,18.36,17.13l-8.6,75.11c0,9.46-8.23,17.13-18.37,17.13l-443.77-.22C16.8,109.15,8.58,101.48,8.58,92Z"/><path class="cls-2" d="M497.68,95.24c0,9.46-8.22,17.13-18.36,17.13h-461C8.22,112.37,0,104.7,0,95.24L8.6,20.13C8.6,10.67,16.83,3,27,3l443.77.22c10.14,0,18.36,7.66,18.36,17.12Z"/><line class="cls-3" x1="489.1" y1="20.34" x2="497.68" y2="95.24"/><path class="cls-1" d="M.62,130.89C-.81,118.62,7.79,114.2,17.93,114.2l461.39,7c10.14,0,18.36,5.52,18.36,12.32l-.81,54c0,6.8-8.22,12.32-18.36,12.32l-446-.16c-10.14,0-18.36-5.51-18.36-12.32Z"/><path class="cls-2" d="M497.68,128.52c0-6.8-8.22-12.32-18.36-12.32H23.93c-10.14,0-18.36,5.52-18.36,12.32l.81,54c0,6.8,8.22,12.32,18.36,12.32l446-.16c10.14,0,18.36-5.51,18.36-12.32Z"/><text class="cls-4" transform="translate(34.14 28.13)">Hipotiroidismo<tspan class="cls-5" x="133.83" y="0"> </tspan><tspan x="141.28" y="0">manifiesto:</tspan><tspan class="cls-6" x="246.38" y="0"> </tspan><tspan x="253.83" y="0">ni</tspan><tspan class="cls-7" x="270.62" y="0">v</tspan><tspan x="281.41" y="0">eles</tspan><tspan class="cls-5" x="318.19" y="0"> </tspan><tspan x="325.63" y="0">de</tspan><tspan class="cls-6" x="348.19" y="0"> </tspan><tspan x="355.64" y="0">hormona </tspan><tspan x="0" y="22.21">estimulante</tspan><tspan class="cls-8" x="108.99" y="22.21"> </tspan><tspan x="115.05" y="22.21">de</tspan><tspan class="cls-9" x="137.61" y="22.21"> </tspan><tspan x="143.68" y="22.21">la</tspan><tspan class="cls-8" x="159.88" y="22.21"> </tspan><tspan x="165.94" y="22.21">tiroides</tspan><tspan class="cls-8" x="234.73" y="22.21"> </tspan><tspan x="240.8" y="22.21">(</tspan><tspan class="cls-10" x="249.2" y="22.21">T</tspan><tspan x="260.5" y="22.21">SH)</tspan><tspan class="cls-8" x="295.47" y="22.21"> </tspan><tspan x="301.53" y="22.21">por</tspan><tspan class="cls-9" x="332.2" y="22.21"> </tspan><tspan x="338.27" y="22.21">encima</tspan><tspan class="cls-8" x="404.85" y="22.21"> </tspan><tspan x="410.92" y="22.21">del </tspan><tspan class="cls-11" x="0" y="44.42">r</tspan><tspan x="7.57" y="44.42">ango</tspan><tspan class="cls-12" x="53.17" y="44.42"> </tspan><tspan x="64.4" y="44.42">de</tspan><tspan class="cls-12" x="86.96" y="44.42"> </tspan><tspan x="98.19" y="44.42">referencia</tspan><tspan class="cls-12" x="191.13" y="44.42"> </tspan><tspan x="202.36" y="44.42">pa</tspan><tspan class="cls-11" x="225" y="44.42">r</tspan><tspan x="232.58" y="44.42">a</tspan><tspan class="cls-12" x="243.7" y="44.42"> </tspan><tspan x="254.93" y="44.42">cada</tspan><tspan class="cls-13" x="298.33" y="44.42"> </tspan><tspan x="309.56" y="44.42">trimestre</tspan><tspan class="cls-12" x="394.73" y="44.42"> </tspan><tspan x="405.96" y="44.42">con </tspan><tspan x="0" y="66.63">concent</tspan><tspan class="cls-11" x="72.27" y="66.63">r</tspan><tspan x="79.84" y="66.63">aciones de tir</tspan><tspan class="cls-14" x="205.14" y="66.63">o</tspan><tspan x="216.2" y="66.63">xina (T4 libre) bajas3.</tspan><tspan x="0" y="111.06">Hipotiroidismo subclínico: ni</tspan><tspan class="cls-7" x="262.41" y="111.06">v</tspan><tspan x="273.2" y="111.06">eles de </tspan><tspan class="cls-10" x="345.54" y="111.06">T</tspan><tspan x="356.84" y="111.06">SH </tspan><tspan x="0" y="133.27">m</tspan><tspan class="cls-15" x="18" y="133.27">a</tspan><tspan class="cls-7" x="28.98" y="133.27">y</tspan><tspan x="39.77" y="133.27">ores al </tspan><tspan class="cls-11" x="108.78" y="133.27">r</tspan><tspan x="116.35" y="133.27">ango de referencia con ni</tspan><tspan class="cls-16" x="352.85" y="133.27">v</tspan><tspan x="363.65" y="133.27">eles</tspan><tspan x="0" y="155.48">normales de T4 libre3.</tspan></text><path class="cls-17" d="M15.5,133.59l-.11-.1a.45.45,0,0,1,.12-.57l1-1,.08-.08-.08-.08-1-1a.66.66,0,0,1-.12-.17.4.4,0,0,1,0-.37l.11-.11c.12,0,.25,0,.38-.06h2a.54.54,0,0,1,.4.17l1.15,1.15a.23.23,0,0,0,.16.06h3a.43.43,0,0,0,0-.05,8.17,8.17,0,0,0-1.4-4.14,7.13,7.13,0,0,0-1-1.16.4.4,0,0,1-.15-.31,1.57,1.57,0,0,1,0-.23l.12-.12a.46.46,0,0,1,.58.14A9,9,0,0,1,22,127.18,8.86,8.86,0,0,1,23.26,131c0,.17,0,.34,0,.49h2.21l-.33-.32c-.13-.13-.26-.26-.38-.4a.38.38,0,0,1,.56-.52l1.4,1.38a.4.4,0,0,1,0,.57.94.94,0,0,1-.1.1l-1.24,1.25a.39.39,0,0,1-.46.1.39.39,0,0,1-.1-.65c.2-.21.41-.41.61-.61l.06-.07H23.31c0,.26,0,.53-.08.8a8.9,8.9,0,0,1-2.44,5.07.46.46,0,0,1-.58.14l-.12-.12s0,0,0,0a.39.39,0,0,1,.09-.51,8,8,0,0,0,.94-1.15A8.22,8.22,0,0,0,22.46,133c0-.25.05-.49.07-.74h-3a.2.2,0,0,0-.13.06l-1.15,1.17a.53.53,0,0,1-.39.16h-2A2,2,0,0,1,15.5,133.59Zm1.17-2.69.53.53a.24.24,0,0,0,.13,0c.31,0,.63,0,.94,0h.09l-.58-.57s0,0-.06,0h-1Zm1.7,1.37H17.31a.16.16,0,0,0-.1,0l-.49.49,0,.06h1.06a.09.09,0,0,0,.06,0Z"/><path class="cls-17" d="M15.5,23.54l-.11-.1a.45.45,0,0,1,.12-.57c.33-.31.64-.64,1-1l.08-.08-.08-.08-1-1a.52.52,0,0,1-.12-.17.4.4,0,0,1,0-.37l.11-.1a2.32,2.32,0,0,1,.38-.06h2a.5.5,0,0,1,.4.16c.38.39.77.76,1.15,1.15a.23.23,0,0,0,.16.06h3s0,0,0-.05a8.17,8.17,0,0,0-1.4-4.14,7.58,7.58,0,0,0-1-1.16.39.39,0,0,1-.15-.31,1.85,1.85,0,0,1,0-.23l.12-.12a.46.46,0,0,1,.58.14A9.43,9.43,0,0,1,22,17.13a8.91,8.91,0,0,1,1.28,3.77c0,.17,0,.34,0,.49h2.21l-.33-.32-.38-.39a.39.39,0,0,1,.56-.53c.47.46.94.92,1.4,1.39a.39.39,0,0,1,0,.56l-.1.11-1.24,1.24a.39.39,0,0,1-.46.1.39.39,0,0,1-.1-.65l.61-.61.06-.07H23.31c0,.26,0,.53-.08.8a8.9,8.9,0,0,1-2.44,5.07.46.46,0,0,1-.58.14l-.12-.12s0,0,0,0a.39.39,0,0,1,.09-.51,7.91,7.91,0,0,0,.94-1.14A8.31,8.31,0,0,0,22.46,23c0-.24.05-.49.07-.74h-3a.2.2,0,0,0-.13.06l-1.15,1.16a.53.53,0,0,1-.39.16h-2A2,2,0,0,1,15.5,23.54Zm1.17-2.68.53.52a.25.25,0,0,0,.13.06h1l-.58-.57-.06,0h-1Zm1.7,1.36H17.31a.16.16,0,0,0-.1.05l-.49.5s0,0,0,.05h1.06l.06,0C18,22.61,18.16,22.42,18.37,22.22Z"/></g></g></svg>