<svg xmlns="http://www.w3.org/2000/svg" viewBox="0 0 468.58 43.76"><defs><style>.cls-1{font-size:9px;fill:#212121;font-family:Verdana;}.cls-2{letter-spacing:0.31em;}.cls-3{letter-spacing:-0.09em;}.cls-4{letter-spacing:0.31em;}.cls-5{letter-spacing:-0.01em;}.cls-6{letter-spacing:-0.05em;}.cls-7{letter-spacing:0.1em;}.cls-8{letter-spacing:-0.02em;}.cls-9{letter-spacing:0.1em;}.cls-10{letter-spacing:-0.04em;}.cls-11{letter-spacing:-0.04em;}.cls-12{letter-spacing:0em;}</style></defs><title>Asset 5</title><g id="Layer_2" data-name="Layer 2"><g id="Capa_6" data-name="Capa 6"><text class="cls-1" transform="translate(0 7.77)">3.<tspan class="cls-2" x="9" y="0"> </tspan><tspan x="14.92" y="0">Leo</tspan><tspan class="cls-2" x="30.75" y="0"> </tspan><tspan x="36.67" y="0">a.</tspan><tspan class="cls-2" x="45.35" y="0"> </tspan><tspan x="51.27" y="0">Carne</tspan><tspan class="cls-3" x="77.86" y="0">y</tspan><tspan x="82.35" y="0">,</tspan><tspan class="cls-4" x="85.63" y="0"> </tspan><tspan x="91.55" y="0">Jeff</tspan><tspan class="cls-2" x="107.33" y="0"> </tspan><tspan x="113.25" y="0">Quinlan</tspan><tspan class="cls-2" x="147.77" y="0"> </tspan><tspan x="153.69" y="0">et</tspan><tspan class="cls-2" x="162.6" y="0"> </tspan><tspan x="168.52" y="0">al.</tspan><tspan class="cls-2" x="179.67" y="0"> </tspan><tspan x="185.59" y="0">T</tspan><tspan class="cls-5" x="191.13" y="0">h</tspan><tspan x="196.74" y="0">yroid</tspan><tspan class="cls-2" x="219.45" y="0"> </tspan><tspan x="225.37" y="0">disease</tspan><tspan class="cls-2" x="258.95" y="0"> </tspan><tspan x="264.88" y="0">in</tspan><tspan class="cls-2" x="273.04" y="0"> </tspan><tspan x="278.96" y="0">pregnanc</tspan><tspan class="cls-3" x="320.86" y="0">y</tspan><tspan x="325.35" y="0">,</tspan><tspan class="cls-2" x="328.63" y="0"> </tspan><tspan x="334.55" y="0">American</tspan><tspan class="cls-2" x="376.92" y="0"> </tspan><tspan class="cls-6" x="382.84" y="0">F</tspan><tspan x="387.57" y="0">amil</tspan><tspan class="cls-3" x="406.67" y="0">y</tspan><tspan x="411.16" y="0">.</tspan><tspan class="cls-2" x="414.44" y="0"> </tspan><tspan x="420.36" y="0">P</tspan><tspan class="cls-5" x="425.79" y="0">h</tspan><tspan x="431.4" y="0">ysician, </tspan><tspan x="0" y="10.8">84(4),2014.</tspan><tspan class="cls-7" x="54.77" y="10.8"> </tspan><tspan x="58.8" y="10.8">7.</tspan><tspan class="cls-7" x="67.8" y="10.8"> </tspan><tspan x="71.83" y="10.8">International</tspan><tspan class="cls-7" x="130.21" y="10.8"> </tspan><tspan x="134.24" y="10.8">fede</tspan><tspan class="cls-8" x="153.73" y="10.8">r</tspan><tspan x="157.42" y="10.8">ation</tspan><tspan class="cls-7" x="179.99" y="10.8"> </tspan><tspan x="184.02" y="10.8">of</tspan><tspan class="cls-7" x="192.65" y="10.8"> </tspan><tspan x="196.68" y="10.8">gynecology</tspan><tspan class="cls-7" x="247.69" y="10.8"> </tspan><tspan x="251.72" y="10.8">and</tspan><tspan class="cls-7" x="268.42" y="10.8"> </tspan><tspan x="272.45" y="10.8">obstetrics,</tspan><tspan class="cls-7" x="319.63" y="10.8"> </tspan><tspan x="323.66" y="10.8">working</tspan><tspan class="cls-7" x="359.43" y="10.8"> </tspan><tspan x="363.46" y="10.8">group</tspan><tspan class="cls-7" x="389.67" y="10.8"> </tspan><tspan x="393.7" y="10.8">on</tspan><tspan class="cls-7" x="404.86" y="10.8"> </tspan><tspan x="408.89" y="10.8">good</tspan><tspan class="cls-9" x="431.03" y="10.8"> </tspan><tspan x="435.06" y="10.8">clinical </tspan><tspan x="0" y="21.6">p</tspan><tspan class="cls-8" x="5.61" y="21.6">r</tspan><tspan x="9.29" y="21.6">actice</tspan><tspan class="cls-10" x="35.45" y="21.6"> </tspan><tspan x="38.24" y="21.6">in</tspan><tspan class="cls-10" x="46.41" y="21.6"> </tspan><tspan x="49.2" y="21.6">mate</tspan><tspan class="cls-5" x="72.27" y="21.6">r</tspan><tspan x="76.02" y="21.6">-nal-fetal</tspan><tspan class="cls-10" x="117.71" y="21.6"> </tspan><tspan x="120.51" y="21.6">medicine.</tspan><tspan class="cls-10" x="164.19" y="21.6"> </tspan><tspan x="166.98" y="21.6">Good</tspan><tspan class="cls-10" x="190.49" y="21.6"> </tspan><tspan x="193.28" y="21.6">clinical</tspan><tspan class="cls-11" x="223.64" y="21.6"> </tspan><tspan class="cls-12" x="226.43" y="21.6">p</tspan><tspan class="cls-8" x="232.04" y="21.6">r</tspan><tspan x="235.72" y="21.6">actice</tspan><tspan class="cls-10" x="261.89" y="21.6"> </tspan><tspan x="264.68" y="21.6">advice:</tspan><tspan class="cls-10" x="297.62" y="21.6"> </tspan><tspan x="300.42" y="21.6">t</tspan><tspan class="cls-5" x="303.96" y="21.6">h</tspan><tspan x="309.57" y="21.6">yroid</tspan><tspan class="cls-10" x="332.28" y="21.6"> </tspan><tspan x="335.07" y="21.6">and</tspan><tspan class="cls-10" x="351.78" y="21.6"> </tspan><tspan x="354.57" y="21.6">pregnanc</tspan><tspan class="cls-3" x="396.47" y="21.6">y</tspan><tspan x="400.96" y="21.6">.</tspan><tspan class="cls-10" x="404.24" y="21.6"> </tspan><tspan x="407.03" y="21.6">International </tspan><tspan x="0" y="32.4">Journal of Gynecology and Obstetrics. 144(3)2019.</tspan></text></g></g></svg>