<svg xmlns="http://www.w3.org/2000/svg" viewBox="0 0 290.23 130.78"><defs><style>.cls-1{fill:#522e91;}.cls-2{font-size:15.41px;fill:#fff;font-family:Verdana-Bold, Verdana;font-weight:700;}</style></defs><title>Asset 4</title><g id="Layer_2" data-name="Layer 2"><g id="Capa_6" data-name="Capa 6"><path class="cls-1" d="M248.79,6.4a6.41,6.41,0,0,0-6.4-6.4H81.66a6.41,6.41,0,0,0-6.4,6.4l3,30.52a6.41,6.41,0,0,0,6.4,6.41L140,40.93V81.82h6V40.67l100.44-4.34a6.41,6.41,0,0,0,6.4-6.41Z"/><path class="cls-1" d="M290.23,120.79c0,5.52-4.79,10-10.7,10H10.71c-5.92,0-10.71-4.47-10.71-10L5,77c0-5.52,4.79-10,10.71-10l258.79.13c5.92,0,10.71,4.47,10.71,10Z"/><text class="cls-2" transform="translate(43.15 93.89)">0,5 a 1 mUI/L por debajo <tspan x="16.28" y="18.5">del límite (4,0mUI/L) </tspan></text><text class="cls-2" transform="translate(115.33 15.28)">Segundo y <tspan x="-23.56" y="18.5">tercer trimestre</tspan></text></g></g></svg>