<svg xmlns="http://www.w3.org/2000/svg" xmlns:xlink="http://www.w3.org/1999/xlink" viewBox="0 0 211.86 138.12"><defs><style>.cls-1{isolation:isolate;}.cls-2{fill:none;}.cls-3{fill:#fff;}.cls-4{mask:url(#mask);}.cls-5{opacity:0.4;}.cls-6{clip-path:url(#clip-path);}.cls-7{filter:url(#luminosity-noclip);}</style><filter id="luminosity-noclip" x="55.69" y="0" width="155.07" height="138.12" filterUnits="userSpaceOnUse" color-interpolation-filters="sRGB"><feFlood flood-color="#fff" result="bg"/><feBlend in="SourceGraphic" in2="bg"/></filter><mask id="mask" x="55.69" y="0" width="155.07" height="138.12" maskUnits="userSpaceOnUse"><g class="cls-7"><g transform="translate(0 0)"><g class="cls-1"><path d="M177.64,38.79l22.69-17.25h-9.75L174.07,34.1a77.66,77.66,0,0,0-12.73-12.32l-.31-.24H147.85l3.58,2.34c.38.24.76.49,1.13.75a73.88,73.88,0,0,1,15.38,14.13l-26,19.78h9.75l19.86-15.09a74.93,74.93,0,0,1,5.17,8.47c1,1.84,1.89,3.83,2.75,5.91l.3.71h8L187.15,57a77.35,77.35,0,0,0-9.51-18.19"/></g></g></g></mask><clipPath id="clip-path" transform="translate(0 0)"><rect class="cls-2" x="55.69" width="155.07" height="138.12"/></clipPath></defs><title>1Asset 7</title><g id="Layer_2" data-name="Layer 2"><g id="Capa_6" data-name="Capa 6"><polygon class="cls-3" points="0 10.53 26.58 10.53 26.58 14.77 4.86 14.77 4.86 31.6 25.85 31.6 25.85 35.84 4.86 35.84 4.86 53.13 26.58 53.13 26.58 57.37 0 57.37 0 10.53"/><path class="cls-3" d="M63.45,57.37H59.12V52H59c-1.31,2.59-4.79,6.2-11.48,6.2-7.09,0-10.77-3.29-12.34-5.19C32.61,50,32,45.53,32,41.86V22.74h4.59V41.79c0,4.37,1,7.22,2.56,9.12a11,11,0,0,0,8.34,3.29,10.51,10.51,0,0,0,7.61-2.78c2.1-2,3.74-4.31,3.74-10.38V22.74h4.59Z" transform="translate(0 0)"/><polygon class="cls-3" points="73.68 26.73 66.14 26.73 66.14 22.74 73.68 22.74 73.68 10.53 78.28 10.53 78.28 22.74 86.87 22.74 86.87 26.73 78.28 26.73 78.28 57.37 73.68 57.37 73.68 26.73"/><path class="cls-3" d="M99.28,22.74h4.59v5H104c2.17-4.87,6.23-5.63,10.11-5.88v4.68A11.19,11.19,0,0,0,106.36,30a11.1,11.1,0,0,0-2.49,7.15V57.37H99.28Z" transform="translate(0 0)"/><path class="cls-3" d="M131,21.86c10.63,0,18.83,8.67,18.83,18.16S141.77,58.19,131,58.19c-10.5,0-18.7-8.55-18.7-17.91,0-11,9.25-18.42,18.7-18.42m.07,32.34a14.1,14.1,0,0,0,14.17-14.37c0-9.11-8-14-14.17-14a14.18,14.18,0,1,0,0,28.36" transform="translate(0 0)"/><path class="cls-3" d="M191,22.71l-4.22,3.21-9,6.86-3.84,2.93a76.39,76.39,0,0,0-13.25-13h-8.87c.49.32,1,.63,1.46,1a75,75,0,0,1,8.83,7.1A75.83,75.83,0,0,1,169.6,39l-3.2,2.44L154,50.83l-8.61,6.55h5.9L154,55.31l12.08-9.18,5.7-4.33a76.14,76.14,0,0,1,5.95,9.58c1,1.95,1.95,4,2.8,6h5.54a76.2,76.2,0,0,0-10-18.83l1.34-1,9.44-7.17,9.31-7.08.75-.57Z" transform="translate(0 0)"/><path class="cls-3" d="M90.45,57.37H95V22.74H90.45ZM89.65,17H95.9V10.44H89.65Z" transform="translate(0 0)"/><g class="cls-4"><g class="cls-5"><g class="cls-6"><path class="cls-3" d="M176.42,38.64a1.71,1.71,0,0,1,.66.18,1.81,1.81,0,0,1,.3.25,6.32,6.32,0,0,1,2,2.55,5.19,5.19,0,0,1,.17.76,12.39,12.39,0,0,1,.16,1.6,10.8,10.8,0,0,0,0,1.8,1.32,1.32,0,0,1-.06.49,1.36,1.36,0,0,1-.24.35A10.53,10.53,0,0,1,177.7,48a6.89,6.89,0,0,1-2.15.95c-.75.2-1.49.43-2.24.58a9.77,9.77,0,0,0-5.62,3.57c-1.1,1.35-2.22,2.68-3.41,4s-2.27,2.21-3.36,3.36c-1.41,1.48-2.79,3-4.19,4.48-.31.33-.59.71-.91,1s-.81.74-1.21,1.11q-1.2,1.11-2.34,2.28c-1.52,1.53-3,3.14-4.35,4.8s-2.64,3.32-3.86,5.07a29.86,29.86,0,0,1-4.16,4.62c-2.27,2.12-4.58,4.19-6.83,6.34-1.34,1.27-2.63,2.6-3.87,4a15,15,0,0,0-3.2,6.09,16.42,16.42,0,0,0-.57,5.27,7.56,7.56,0,0,0,1.55,4.62,17.7,17.7,0,0,0,8.88,5.65c2,.53,3.9,1.09,5.9,1.48.87.17,1.81.22,2.66.44a21.52,21.52,0,0,0,2.63.54,19.82,19.82,0,0,0,2.17.17,11.61,11.61,0,0,0,3.06,0c.36-.06.72-.13,1.07-.22l-.12.17c-.22.12-.35.37-.54.55l-.88.79c-1,.88-2,1.76-2.94,2.66a33.12,33.12,0,0,1-4.92,3.75,31.7,31.7,0,0,1-11.39,4.36,46.69,46.69,0,0,1-12.15.61,50.83,50.83,0,0,1-11.62-2.5,23.68,23.68,0,0,1-8.9-5.55l-.65-.63a45.18,45.18,0,0,0-3.67-3.07c-.9-.7-1.85-1.38-2.81-2a7.4,7.4,0,0,0-3-1.21c-1.91-.25-3.75.63-5.5,1.29a46.72,46.72,0,0,0-6,2.69l-.91.52c-.89.52-1.86.91-2.77,1.4-1.47.8-2.93,1.63-4.38,2.47a30.29,30.29,0,0,1-5,2.24,8.3,8.3,0,0,1-3.71.4,11.06,11.06,0,0,1-4.63-1.41,2.85,2.85,0,0,1-1.14-3.06s0,0,.11,0c-.11,0,.91,1.2,1,1.29a2.6,2.6,0,0,0,1.5.46c1.4,0,2.55-1,3.93-1.15a13.32,13.32,0,0,1,1.66.1,19.73,19.73,0,0,0,2.17-.12,12.08,12.08,0,0,0,4.36-1.57,32.84,32.84,0,0,0,5.31-3.2c1.5-1.13,2.92-2.35,4.37-3.53,1.18-1,2.33-2,3.52-2.91,1.46-1.16,3-2.29,4.44-3.43a15,15,0,0,0,1.25-1,13.49,13.49,0,0,1,3.88-2.22,13.71,13.71,0,0,1,3-1c1.4-.3,2.78-.68,4.17-1a8.28,8.28,0,0,0,2.88-1.43,13.24,13.24,0,0,0,4.52-5.66,5.09,5.09,0,0,0,.38-1.26,8,8,0,0,1,2.56-4.81c.85-.79,1.76-1.53,2.63-2.3.7-.6,1.39-1.21,2.08-1.84a26,26,0,0,1,6.75-4.58c.94-.43,1.89-.84,2.84-1.25a8.4,8.4,0,0,0,2.93-2,41.77,41.77,0,0,1,7.23-6.57c1.7-1.15,3.7-1.9,5.22-3.32,1.85-1.72,3.06-4,4.79-5.76.64-.67,1.25-1.36,1.92-2s1.36-1.07,2-1.6c4.19-3.34,8.27-6.83,12.7-9.84a11.19,11.19,0,0,0,2.54-2.12,9.07,9.07,0,0,0,1.56-2.8c.21-.62.32-1.27.52-1.9a9.35,9.35,0,0,1,.77-1.67,31,31,0,0,1,2.05-3.38,4.9,4.9,0,0,1,.86-.9,1.24,1.24,0,0,1,1.79.09,3.73,3.73,0,0,1,.56.64,2.18,2.18,0,0,0,1.57,1,9.15,9.15,0,0,1,1.72.32l.27.11.25.07M99.67,69.94c0-.27-.07-.53-.11-.8a14.81,14.81,0,0,0-1-3.46c-.73-1.72-2.51-1.87-4.15-1.84-3.9.06-7.74,1.91-10.82,4.2a22.13,22.13,0,0,0-7.4,9.54c-.15.39-.3.78-.44,1.18-.65,1.85-1.16,3.75-1.64,5.66a46.54,46.54,0,0,1-9.61,18.78,11.15,11.15,0,0,1-1.25,1.32,11.05,11.05,0,0,1-1.7,1.07c-1.3.72-2.77,1.46-4.22,1.1A8.92,8.92,0,0,0,63,109.24c4.64.34,8.63-3.29,12.6-5.11,2.86-1.31,5.89-2.36,8.86-3.4a18.05,18.05,0,0,0,4.84-2.39,16.74,16.74,0,0,0,3-2.79,13.55,13.55,0,0,0,1.21-1.71,2.76,2.76,0,0,1,1.38-1.16.65.65,0,0,0,.42-.85,4.73,4.73,0,0,0-2-3.32,3.1,3.1,0,0,1-1.57-2.75c0-1.2.54-1.84,1.58-1.88a7.09,7.09,0,0,1,1.3.07.82.82,0,0,0,.68-.1,13.43,13.43,0,0,0,1.16-1,7.39,7.39,0,0,0,.79-1,14.21,14.21,0,0,0,1.27-2.29,14.4,14.4,0,0,0,1.19-5.09c0-.76.07-1.53.08-2.3a16.51,16.51,0,0,0-.11-2.22M65.88,122.63A27.66,27.66,0,0,0,69.63,121a47.57,47.57,0,0,0,7.7-5c2-1.55,4-3.19,5.91-4.8.73-.6,1.45-1.23,2.12-1.9s1.14-1.3,1.8-1.89A20.18,20.18,0,0,1,92.52,104a41,41,0,0,1,5.85-2.33c1-.26,2-.48,3-.82a4.64,4.64,0,0,0,2.23-1.12,7.61,7.61,0,0,0,1.3-2.13c.55-1.24,1.23-2.43,1.69-3.71a10.24,10.24,0,0,0,.55-3.56c0-.61-.12-2.36-1.15-1.74-1.65,1-3.11,2.35-5,2.89l-.89.23a8.82,8.82,0,0,0-3,1.38,1.61,1.61,0,0,0-.66.91,7.34,7.34,0,0,1,2.79-1.37c.52-.17,1.44,0,1.65.56a1.26,1.26,0,0,1-.26,1.09c-.37.56-.67,1.15-1.07,1.69A7.45,7.45,0,0,1,95.27,99a23.31,23.31,0,0,0-6,2.48c-2.43,1.38-4.85,2.8-7.26,4.21a53.54,53.54,0,0,0-10.52,7.74,29.29,29.29,0,0,0-4.12,4.78,21.93,21.93,0,0,1-4.05,4.6,5.4,5.4,0,0,0,2.59-.21M114,75.11a2,2,0,0,1-2.88,1.62,6.92,6.92,0,0,1-2.77-1.87,3.63,3.63,0,0,1-.75-1.15,23.66,23.66,0,0,1-.94-3,9.21,9.21,0,0,0-2.51-4.49,6.38,6.38,0,0,0-4-2.09,4.43,4.43,0,0,0-1.94.28A3.26,3.26,0,0,1,99,65.52a15.31,15.31,0,0,1,1,3.56l.09.67a2.93,2.93,0,0,1,.53.09c.15,0,.29.13.43.19a5.18,5.18,0,0,1,1.1.68,7.15,7.15,0,0,1,1.64,2c.38.69.58,1.48.89,2.2a4.8,4.8,0,0,0,3.21,3c.64.18,1.27.36,1.89.59s.8.43.71,1.18c0,.19-.06.38-.08.57,3-.22,4.6-3.75,3.66-5.55-.06.12,0,.26,0,.39m45.75,45.49q-1.59,1.44-3.33,2.77a50.92,50.92,0,0,1-51.22,6.09,53.13,53.13,0,0,0,61.23-2.17,55.49,55.49,0,0,0,5.15-4.46ZM182.2,61.79a74.25,74.25,0,0,1,3.6,32.52,73.21,73.21,0,0,1-2,10.64,5.73,5.73,0,0,0,.61,4.86,5.43,5.43,0,0,0,4.2,2.31c1.24.07,3.11-.13,4.11-1.12a2.33,2.33,0,0,0,.43-3,1.94,1.94,0,0,0-.83-.62,2.62,2.62,0,0,0-2.52.43,2.74,2.74,0,0,0-1.09,1.9c-1.76-.07-2.35-1.92-1.92-3.43.57-2,1.18-4,1.67-6.06a74.25,74.25,0,0,0-2.4-42.81h-5.54c.6,1.45,1.17,2.92,1.68,4.41M117.89,7.37c-2.08-.07-4.18,0-6.28,0-1.57,0-3.19-1.06-2.8-2.77a2.8,2.8,0,0,0,2.13-.55A2.61,2.61,0,0,0,112,1.74a1.86,1.86,0,0,0-.38-1,2.35,2.35,0,0,0-3-.4c-1.22.7-1.91,2.45-2.17,3.66a5.44,5.44,0,0,0,1.1,4.67,5.74,5.74,0,0,0,4.52,1.89,72.6,72.6,0,0,1,10.79.92A74.07,74.07,0,0,1,133.43,14a73.25,73.25,0,0,1,18.33,8.7h8.87A74.29,74.29,0,0,0,117.89,7.37m23.73,52.85q-5.53,4.23-11.09,8.44l-8.66,6.58-3.05,2.32c-1.26,1-2.43,2.35-3.94,2.79a9.61,9.61,0,0,0-1.09.13l-5.58,4.25-3.1,2.35a9,9,0,0,0-1.41,1.1,7.46,7.46,0,0,0,1.42-.33,6.45,6.45,0,0,1,2-.06,4.22,4.22,0,0,1,.86.24c.26.11.62.52.86.56s.08,0,.26,0a4.3,4.3,0,0,0,.94-.71l3.56-2.71c1-.72,1.92-1.59,2.94-2.28s2.32-.86,3.31-1.54c1.45-1,2.82-2.15,4.23-3.22l7.83-6,10.35-7.87,9.05-6.88h-5.9l-3.75,2.84M202.89,14l-8.39,2.34-.07.19,3.83.73L191,22.71h5.91l3.54-2.58,0,4.35.19,0,4.5-7.46,5.6-6.6L202.89,14" transform="translate(0 0)"/></g></g></g><path class="cls-3" d="M211.86,31.46a4.82,4.82,0,1,1-4.8-4.69,4.71,4.71,0,0,1,4.8,4.69m-8.43,0a3.64,3.64,0,0,0,3.66,3.74,3.74,3.74,0,0,0,0-7.48,3.64,3.64,0,0,0-3.63,3.74m2.89,2.45h-1.09V29.23a9.2,9.2,0,0,1,1.8-.14,2.91,2.91,0,0,1,1.63.34,1.29,1.29,0,0,1,.46,1,1.2,1.2,0,0,1-1,1.08v.06a1.37,1.37,0,0,1,.86,1.14,3.57,3.57,0,0,0,.34,1.17h-1.17a4.37,4.37,0,0,1-.37-1.14c-.08-.51-.37-.74-1-.74h-.51Zm0-2.65h.51c.6,0,1.09-.2,1.09-.69s-.32-.71-1-.71a2.43,2.43,0,0,0-.6.06Z" transform="translate(0 0)"/></g></g></svg>